<svg width="322" height="276" viewBox="0 0 322 276" fill="none" xmlns="http://www.w3.org/2000/svg">
<rect width="55" height="36" rx="4" fill="#F04E23"/>
<path d="M22.192 23.5H20.246V17.69L18.342 21.47H17.026L15.108 17.69V23.5H13.162V13.532H15.08L17.684 18.922L20.274 13.532H22.192V23.5ZM31.5377 18.516C31.5377 20.238 31.5517 21.484 30.5437 22.492C29.8437 23.192 28.9897 23.584 27.8557 23.584C26.7217 23.584 25.8537 23.192 25.1537 22.492C24.1457 21.484 24.1737 20.238 24.1737 18.516C24.1737 16.794 24.1457 15.548 25.1537 14.54C25.8537 13.84 26.7217 13.448 27.8557 13.448C28.9897 13.448 29.8437 13.84 30.5437 14.54C31.5517 15.548 31.5377 16.794 31.5377 18.516ZM29.5917 18.516C29.5917 16.598 29.4797 16.136 29.1017 15.716C28.8217 15.394 28.3877 15.184 27.8557 15.184C27.3237 15.184 26.8757 15.394 26.5957 15.716C26.2177 16.136 26.1197 16.598 26.1197 18.516C26.1197 20.434 26.2177 20.896 26.5957 21.316C26.8757 21.638 27.3237 21.848 27.8557 21.848C28.3877 21.848 28.8217 21.638 29.1017 21.316C29.4797 20.896 29.5917 20.434 29.5917 18.516ZM41.1494 23.5H39.4134L35.4654 17.382V23.5H33.5194V13.532H35.2554L39.2034 19.636V13.532H41.1494V23.5Z" fill="white"/>
<rect y="40" width="55" height="36" rx="4" fill="#F04E23"/>
<path d="M22.074 55.268H19.47V63.5H17.524V55.268H14.92V53.532H22.074V55.268ZM30.842 60.084C30.842 62.198 29.218 63.584 27.174 63.584C25.13 63.584 23.506 62.198 23.506 60.084V53.532H25.452V60.014C25.452 61.162 26.124 61.848 27.174 61.848C28.224 61.848 28.91 61.162 28.91 60.014V53.532H30.842V60.084ZM39.5776 63.5H33.0116V53.532H39.5776V55.268H34.9576V57.606H38.8916V59.342H34.9576V61.764H39.5776V63.5Z" fill="white"/>
<rect y="80" width="55" height="36" rx="4" fill="#F04E23"/>
<path d="M24.334 93.532L21.66 103.5H20.036L18.202 97.452L16.368 103.5H14.744L12.084 93.532H14.114L15.654 99.818L17.474 93.532H18.93L20.75 99.818L22.304 93.532H24.334ZM32.1421 103.5H25.5761V93.532H32.1421V95.268H27.5221V97.606H31.4561V99.342H27.5221V101.764H32.1421V103.5ZM41.2906 98.474C41.2906 99.972 41.4026 101.428 40.2826 102.548C39.6246 103.206 38.6866 103.5 37.6506 103.5H34.0526V93.532H37.6506C38.6866 93.532 39.6246 93.826 40.2826 94.484C41.4026 95.604 41.2906 96.976 41.2906 98.474ZM39.3446 98.474C39.3446 96.962 39.2886 96.332 38.9246 95.884C38.5886 95.478 38.1406 95.268 37.4686 95.268H35.9986V101.764H37.4686C38.1406 101.764 38.5886 101.554 38.9246 101.148C39.2886 100.7 39.3446 99.986 39.3446 98.474Z" fill="white"/>
<rect y="120" width="55" height="36" rx="4" fill="#F04E23"/>
<path d="M17.574 135.268H14.97V143.5H13.024V135.268H10.42V133.532H17.574V135.268ZM26.426 143.5H24.48V139.328H21.106V143.5H19.16V133.532H21.106V137.606H24.48V133.532H26.426V143.5ZM35.926 140.084C35.926 142.198 34.302 143.584 32.258 143.584C30.214 143.584 28.59 142.198 28.59 140.084V133.532H30.536V140.014C30.536 141.162 31.208 141.848 32.258 141.848C33.308 141.848 33.994 141.162 33.994 140.014V133.532H35.926V140.084Z" fill="white"/>
<rect y="160" width="55" height="36" rx="4" fill="#F04E23"/>
<path d="M24.228 175.268H19.608V177.718H23.542V179.454H19.608V183.5H17.662V173.532H24.228V175.268ZM33.4658 183.5H31.2118L29.2658 179.524H27.8658V183.5H25.9198V173.532H29.8258C31.8558 173.532 33.0598 174.918 33.0598 176.584C33.0598 177.984 32.2058 178.852 31.2398 179.202L33.4658 183.5ZM31.1138 176.584C31.1138 175.814 30.5538 175.268 29.6998 175.268H27.8658V177.9H29.6998C30.5538 177.9 31.1138 177.354 31.1138 176.584ZM37.026 183.5H35.08V173.532H37.026V183.5Z" fill="white"/>
<rect y="200" width="55" height="36" rx="4" fill="#F04E23"/>
<path d="M22.602 220.56C22.602 222.492 20.992 223.584 18.906 223.584C17.394 223.584 16.246 223.262 15.266 222.268L16.526 221.008C17.156 221.638 18.01 221.848 18.934 221.848C20.082 221.848 20.698 221.414 20.698 220.616C20.698 220.266 20.6 219.972 20.39 219.776C20.194 219.594 19.97 219.496 19.508 219.426L18.304 219.258C17.45 219.132 16.82 218.866 16.372 218.432C15.896 217.956 15.658 217.312 15.658 216.472C15.658 214.694 16.974 213.448 19.13 213.448C20.502 213.448 21.496 213.784 22.35 214.61L21.118 215.828C20.488 215.226 19.732 215.142 19.074 215.142C18.038 215.142 17.534 215.716 17.534 216.402C17.534 216.654 17.618 216.92 17.828 217.116C18.024 217.298 18.346 217.452 18.752 217.508L19.928 217.676C20.838 217.802 21.412 218.054 21.832 218.446C22.364 218.95 22.602 219.678 22.602 220.56ZM32.1335 223.5H30.1035L29.5155 221.736H25.9735L25.3715 223.5H23.3415L26.9675 213.532H28.4935L32.1335 223.5ZM28.9975 220.098L27.7795 216.472L26.5195 220.098H28.9975ZM38.9392 215.268H36.3352V223.5H34.3892V215.268H31.7852V213.532H38.9392V215.268Z" fill="white"/>
<rect y="240" width="55" height="36" rx="4" fill="#F04E23"/>
<path d="M21.102 260.56C21.102 262.492 19.492 263.584 17.406 263.584C15.894 263.584 14.746 263.262 13.766 262.268L15.026 261.008C15.656 261.638 16.51 261.848 17.434 261.848C18.582 261.848 19.198 261.414 19.198 260.616C19.198 260.266 19.1 259.972 18.89 259.776C18.694 259.594 18.47 259.496 18.008 259.426L16.804 259.258C15.95 259.132 15.32 258.866 14.872 258.432C14.396 257.956 14.158 257.312 14.158 256.472C14.158 254.694 15.474 253.448 17.63 253.448C19.002 253.448 19.996 253.784 20.85 254.61L19.618 255.828C18.988 255.226 18.232 255.142 17.574 255.142C16.538 255.142 16.034 255.716 16.034 256.402C16.034 256.654 16.118 256.92 16.328 257.116C16.524 257.298 16.846 257.452 17.252 257.508L18.428 257.676C19.338 257.802 19.912 258.054 20.332 258.446C20.864 258.95 21.102 259.678 21.102 260.56ZM30.1155 260.084C30.1155 262.198 28.4915 263.584 26.4475 263.584C24.4035 263.584 22.7795 262.198 22.7795 260.084V253.532H24.7255V260.014C24.7255 261.162 25.3975 261.848 26.4475 261.848C27.4975 261.848 28.1835 261.162 28.1835 260.014V253.532H30.1155V260.084ZM39.915 263.5H38.179L34.231 257.382V263.5H32.285V253.532H34.021L37.969 259.636V253.532H39.915V263.5Z" fill="white"/>
<rect x="61" width="49" height="36" rx="4" fill="#FCEAE5"/>
<rect x="61" y="40" width="49" height="36" rx="4" fill="#FCEAE5"/>
<rect x="61" y="80" width="49" height="36" rx="4" fill="#FCEAE5"/>
<rect x="61" y="120" width="49" height="36" rx="4" fill="#FCEAE5"/>
<rect x="61" y="160" width="49" height="36" rx="4" fill="#FCEAE5"/>
<rect x="61" y="200" width="49" height="36" rx="4" fill="#FCEAE5"/>
<rect x="61" y="240" width="49" height="36" rx="4" fill="#FCEAE5"/>
<rect x="114" width="49" height="36" rx="4" fill="#FCEAE5"/>
<rect x="114" y="40" width="49" height="36" rx="4" fill="#FCEAE5"/>
<rect x="114" y="80" width="49" height="36" rx="4" fill="#FCEAE5"/>
<rect x="114" y="120" width="49" height="36" rx="4" fill="#FCEAE5"/>
<rect x="114" y="160" width="49" height="36" rx="4" fill="#FCEAE5"/>
<rect x="114" y="200" width="49" height="36" rx="4" fill="#FCEAE5"/>
<rect x="114" y="240" width="49" height="36" rx="4" fill="#FCEAE5"/>
<rect x="167" width="49" height="36" rx="4" fill="#FCEAE5"/>
<rect x="167" y="40" width="49" height="36" rx="4" fill="#FCEAE5"/>
<rect x="167" y="80" width="49" height="36" rx="4" fill="#FCEAE5"/>
<rect x="167" y="120" width="49" height="36" rx="4" fill="#FCEAE5"/>
<rect x="167" y="160" width="49" height="36" rx="4" fill="#FCEAE5"/>
<rect x="167" y="200" width="49" height="36" rx="4" fill="#FCEAE5"/>
<rect x="167" y="240" width="49" height="36" rx="4" fill="#FCEAE5"/>
<rect x="220" width="49" height="36" rx="4" fill="#FCEAE5"/>
<rect x="220" y="40" width="49" height="36" rx="4" fill="#FCEAE5"/>
<rect x="220" y="80" width="49" height="36" rx="4" fill="#FCEAE5"/>
<rect x="220" y="120" width="49" height="36" rx="4" fill="#FCEAE5"/>
<rect x="220" y="160" width="49" height="36" rx="4" fill="#FCEAE5"/>
<rect x="220" y="200" width="49" height="36" rx="4" fill="#FCEAE5"/>
<rect x="220" y="240" width="49" height="36" rx="4" fill="#FCEAE5"/>
<rect x="273" width="49" height="36" rx="4" fill="#FCEAE5"/>
<rect x="273" y="40" width="49" height="36" rx="4" fill="#FCEAE5"/>
<rect x="273" y="80" width="49" height="36" rx="4" fill="#FCEAE5"/>
<rect x="273" y="120" width="49" height="36" rx="4" fill="#FCEAE5"/>
<rect x="273" y="160" width="49" height="36" rx="4" fill="#FCEAE5"/>
<rect x="273" y="200" width="49" height="36" rx="4" fill="#FCEAE5"/>
<rect x="273" y="240" width="49" height="36" rx="4" fill="#FCEAE5"/>
<rect x="75" y="116" width="233" height="44" rx="22" fill="#F04E23"/>
<path d="M106.105 133.141L102.706 143H100.652L104.933 131.625H106.245L106.105 133.141ZM108.949 143L105.542 133.141L105.394 131.625H106.714L111.011 143H108.949ZM108.784 138.781V140.336H102.597V138.781H108.784ZM118.878 139.297H120.831C120.769 140.042 120.56 140.706 120.206 141.289C119.852 141.867 119.355 142.323 118.714 142.656C118.074 142.99 117.295 143.156 116.378 143.156C115.675 143.156 115.042 143.031 114.48 142.781C113.917 142.526 113.435 142.167 113.034 141.703C112.633 141.234 112.326 140.669 112.113 140.008C111.904 139.346 111.8 138.607 111.8 137.789V136.844C111.8 136.026 111.907 135.286 112.12 134.625C112.339 133.964 112.652 133.398 113.058 132.93C113.464 132.456 113.951 132.094 114.519 131.844C115.092 131.594 115.735 131.469 116.449 131.469C117.355 131.469 118.12 131.635 118.745 131.969C119.37 132.302 119.855 132.763 120.199 133.352C120.547 133.94 120.761 134.615 120.839 135.375H118.886C118.834 134.885 118.719 134.466 118.542 134.117C118.37 133.768 118.115 133.503 117.777 133.32C117.438 133.133 116.995 133.039 116.449 133.039C116.001 133.039 115.61 133.122 115.277 133.289C114.943 133.456 114.665 133.701 114.441 134.023C114.217 134.346 114.047 134.745 113.933 135.219C113.824 135.688 113.769 136.224 113.769 136.828V137.789C113.769 138.362 113.818 138.883 113.917 139.352C114.021 139.815 114.178 140.214 114.386 140.547C114.6 140.88 114.87 141.138 115.199 141.32C115.527 141.503 115.92 141.594 116.378 141.594C116.935 141.594 117.386 141.505 117.73 141.328C118.079 141.151 118.342 140.893 118.519 140.555C118.701 140.211 118.821 139.792 118.878 139.297ZM129.331 139.297H131.284C131.222 140.042 131.014 140.706 130.659 141.289C130.305 141.867 129.808 142.323 129.167 142.656C128.527 142.99 127.748 143.156 126.831 143.156C126.128 143.156 125.495 143.031 124.933 142.781C124.37 142.526 123.889 142.167 123.488 141.703C123.087 141.234 122.779 140.669 122.566 140.008C122.357 139.346 122.253 138.607 122.253 137.789V136.844C122.253 136.026 122.36 135.286 122.574 134.625C122.792 133.964 123.105 133.398 123.511 132.93C123.917 132.456 124.404 132.094 124.972 131.844C125.545 131.594 126.188 131.469 126.902 131.469C127.808 131.469 128.574 131.635 129.199 131.969C129.824 132.302 130.308 132.763 130.652 133.352C131.001 133.94 131.214 134.615 131.292 135.375H129.339C129.287 134.885 129.172 134.466 128.995 134.117C128.824 133.768 128.568 133.503 128.23 133.32C127.891 133.133 127.449 133.039 126.902 133.039C126.454 133.039 126.063 133.122 125.73 133.289C125.396 133.456 125.118 133.701 124.894 134.023C124.67 134.346 124.501 134.745 124.386 135.219C124.277 135.688 124.222 136.224 124.222 136.828V137.789C124.222 138.362 124.271 138.883 124.37 139.352C124.475 139.815 124.631 140.214 124.839 140.547C125.053 140.88 125.324 141.138 125.652 141.32C125.98 141.503 126.373 141.594 126.831 141.594C127.389 141.594 127.839 141.505 128.183 141.328C128.532 141.151 128.795 140.893 128.972 140.555C129.154 140.211 129.274 139.792 129.331 139.297ZM140.511 141.445V143H134.472V141.445H140.511ZM135.027 131.625V143H133.066V131.625H135.027ZM139.722 136.375V137.906H134.472V136.375H139.722ZM140.472 131.625V133.188H134.472V131.625H140.472ZM148.097 140.07C148.097 139.836 148.06 139.628 147.988 139.445C147.92 139.263 147.797 139.096 147.62 138.945C147.443 138.794 147.193 138.648 146.87 138.508C146.553 138.362 146.146 138.214 145.652 138.062C145.11 137.896 144.61 137.711 144.152 137.508C143.699 137.299 143.303 137.06 142.964 136.789C142.626 136.513 142.363 136.198 142.175 135.844C141.988 135.484 141.894 135.07 141.894 134.602C141.894 134.138 141.99 133.716 142.183 133.336C142.381 132.956 142.659 132.628 143.019 132.352C143.383 132.07 143.813 131.854 144.308 131.703C144.803 131.547 145.35 131.469 145.949 131.469C146.792 131.469 147.519 131.625 148.128 131.938C148.743 132.25 149.214 132.669 149.542 133.195C149.876 133.721 150.042 134.302 150.042 134.938H148.097C148.097 134.562 148.016 134.232 147.855 133.945C147.699 133.654 147.459 133.424 147.136 133.258C146.818 133.091 146.415 133.008 145.925 133.008C145.462 133.008 145.076 133.078 144.769 133.219C144.462 133.359 144.232 133.549 144.081 133.789C143.93 134.029 143.855 134.299 143.855 134.602C143.855 134.815 143.904 135.01 144.003 135.188C144.102 135.359 144.253 135.521 144.456 135.672C144.659 135.818 144.915 135.956 145.222 136.086C145.529 136.216 145.891 136.341 146.308 136.461C146.938 136.648 147.488 136.857 147.956 137.086C148.425 137.31 148.816 137.565 149.128 137.852C149.441 138.138 149.675 138.464 149.831 138.828C149.988 139.188 150.066 139.596 150.066 140.055C150.066 140.534 149.969 140.966 149.777 141.352C149.584 141.732 149.308 142.057 148.949 142.328C148.594 142.594 148.167 142.799 147.667 142.945C147.172 143.086 146.62 143.156 146.011 143.156C145.464 143.156 144.925 143.083 144.394 142.938C143.868 142.792 143.389 142.57 142.956 142.273C142.524 141.971 142.18 141.596 141.925 141.148C141.67 140.695 141.542 140.167 141.542 139.562H143.503C143.503 139.932 143.566 140.247 143.691 140.508C143.821 140.768 144.001 140.982 144.23 141.148C144.459 141.31 144.725 141.43 145.027 141.508C145.334 141.586 145.662 141.625 146.011 141.625C146.469 141.625 146.852 141.56 147.159 141.43C147.472 141.299 147.706 141.117 147.863 140.883C148.019 140.648 148.097 140.378 148.097 140.07ZM157.784 140.07C157.784 139.836 157.748 139.628 157.675 139.445C157.607 139.263 157.485 139.096 157.308 138.945C157.131 138.794 156.881 138.648 156.558 138.508C156.24 138.362 155.834 138.214 155.339 138.062C154.797 137.896 154.297 137.711 153.839 137.508C153.386 137.299 152.99 137.06 152.652 136.789C152.313 136.513 152.05 136.198 151.863 135.844C151.675 135.484 151.581 135.07 151.581 134.602C151.581 134.138 151.678 133.716 151.87 133.336C152.068 132.956 152.347 132.628 152.706 132.352C153.071 132.07 153.501 131.854 153.995 131.703C154.49 131.547 155.037 131.469 155.636 131.469C156.48 131.469 157.206 131.625 157.816 131.938C158.43 132.25 158.902 132.669 159.23 133.195C159.563 133.721 159.73 134.302 159.73 134.938H157.784C157.784 134.562 157.704 134.232 157.542 133.945C157.386 133.654 157.146 133.424 156.824 133.258C156.506 133.091 156.102 133.008 155.613 133.008C155.149 133.008 154.764 133.078 154.456 133.219C154.149 133.359 153.92 133.549 153.769 133.789C153.618 134.029 153.542 134.299 153.542 134.602C153.542 134.815 153.592 135.01 153.691 135.188C153.79 135.359 153.941 135.521 154.144 135.672C154.347 135.818 154.602 135.956 154.909 136.086C155.217 136.216 155.579 136.341 155.995 136.461C156.626 136.648 157.175 136.857 157.644 137.086C158.113 137.31 158.503 137.565 158.816 137.852C159.128 138.138 159.363 138.464 159.519 138.828C159.675 139.188 159.753 139.596 159.753 140.055C159.753 140.534 159.657 140.966 159.464 141.352C159.271 141.732 158.995 142.057 158.636 142.328C158.282 142.594 157.855 142.799 157.355 142.945C156.86 143.086 156.308 143.156 155.699 143.156C155.152 143.156 154.613 143.083 154.081 142.938C153.555 142.792 153.076 142.57 152.644 142.273C152.212 141.971 151.868 141.596 151.613 141.148C151.357 140.695 151.23 140.167 151.23 139.562H153.191C153.191 139.932 153.253 140.247 153.378 140.508C153.508 140.768 153.688 140.982 153.917 141.148C154.146 141.31 154.412 141.43 154.714 141.508C155.021 141.586 155.35 141.625 155.699 141.625C156.157 141.625 156.54 141.56 156.847 141.43C157.159 141.299 157.394 141.117 157.55 140.883C157.706 140.648 157.784 140.378 157.784 140.07ZM168.324 140.445L170.589 131.625H171.777L171.644 133.898L169.222 143H167.988L168.324 140.445ZM166.628 131.625L168.464 140.375L168.628 143H167.316L164.683 131.625H166.628ZM174.347 140.352L176.159 131.625H178.113L175.48 143H174.167L174.347 140.352ZM172.238 131.625L174.48 140.469L174.808 143H173.574L171.191 133.898L171.066 131.625H172.238ZM181.659 131.625V143H179.699V131.625H181.659ZM188.542 131.625V143H186.597V131.625H188.542ZM192.113 131.625V133.188H183.058V131.625H192.113ZM201.128 136.375V137.93H195.089V136.375H201.128ZM195.574 131.625V143H193.613V131.625H195.574ZM202.636 131.625V143H200.683V131.625H202.636ZM213.277 138.758H210.316V137.203H213.277C213.792 137.203 214.209 137.12 214.527 136.953C214.844 136.786 215.076 136.557 215.222 136.266C215.373 135.969 215.449 135.63 215.449 135.25C215.449 134.891 215.373 134.555 215.222 134.242C215.076 133.924 214.844 133.669 214.527 133.477C214.209 133.284 213.792 133.188 213.277 133.188H210.917V143H208.956V131.625H213.277C214.157 131.625 214.904 131.781 215.519 132.094C216.139 132.401 216.61 132.828 216.933 133.375C217.256 133.917 217.417 134.536 217.417 135.234C217.417 135.969 217.256 136.599 216.933 137.125C216.61 137.651 216.139 138.055 215.519 138.336C214.904 138.617 214.157 138.758 213.277 138.758ZM219.175 131.625H223.199C224.063 131.625 224.8 131.755 225.409 132.016C226.019 132.276 226.485 132.661 226.808 133.172C227.136 133.677 227.3 134.302 227.3 135.047C227.3 135.615 227.196 136.115 226.988 136.547C226.779 136.979 226.485 137.344 226.105 137.641C225.725 137.932 225.271 138.159 224.745 138.32L224.152 138.609H220.534L220.519 137.055H223.23C223.699 137.055 224.089 136.971 224.402 136.805C224.714 136.638 224.949 136.411 225.105 136.125C225.266 135.833 225.347 135.505 225.347 135.141C225.347 134.745 225.269 134.401 225.113 134.109C224.962 133.812 224.727 133.586 224.409 133.43C224.092 133.268 223.688 133.188 223.199 133.188H221.136V143H219.175V131.625ZM225.667 143L222.995 137.891L225.05 137.883L227.761 142.898V143H225.667ZM236.699 141.445V143H230.659V141.445H236.699ZM231.214 131.625V143H229.253V131.625H231.214ZM235.909 136.375V137.906H230.659V136.375H235.909ZM236.659 131.625V133.188H230.659V131.625H236.659ZM239.097 131.625H240.847L244.136 140.398L247.417 131.625H249.167L244.824 143H243.433L239.097 131.625ZM238.3 131.625H239.964L240.253 139.219V143H238.3V131.625ZM248.3 131.625H249.972V143H248.011V139.219L248.3 131.625ZM254.394 131.625V143H252.433V131.625H254.394ZM263.214 131.625H265.167V139.227C265.167 140.091 264.98 140.815 264.605 141.398C264.23 141.982 263.719 142.422 263.074 142.719C262.433 143.01 261.717 143.156 260.925 143.156C260.107 143.156 259.378 143.01 258.738 142.719C258.097 142.422 257.592 141.982 257.222 141.398C256.857 140.815 256.675 140.091 256.675 139.227V131.625H258.628V139.227C258.628 139.773 258.722 140.224 258.909 140.578C259.097 140.927 259.363 141.185 259.706 141.352C260.05 141.518 260.456 141.602 260.925 141.602C261.394 141.602 261.797 141.518 262.136 141.352C262.48 141.185 262.745 140.927 262.933 140.578C263.12 140.224 263.214 139.773 263.214 139.227V131.625ZM268.097 131.625H269.847L273.136 140.398L276.417 131.625H278.167L273.824 143H272.433L268.097 131.625ZM267.3 131.625H268.964L269.253 139.219V143H267.3V131.625ZM277.3 131.625H278.972V143H277.011V139.219L277.3 131.625Z" fill="white"/>
</svg>
