<svg width="110" height="102" viewBox="0 0 110 102" fill="none" xmlns="http://www.w3.org/2000/svg">
<path d="M0 26C0 11.6406 11.6406 0 26 0H84C98.3594 0 110 11.6406 110 26V76C110 90.3594 98.3594 102 84 102H26C11.6406 102 0 90.3594 0 76V26Z" fill="#F04E23"/>
<path d="M53.5655 46.952L60.5415 47.144C60.7975 46.12 62.5895 39.208 63.1655 37.096C64.3815 32.424 64.5095 32.104 64.8295 31.4C65.0855 30.76 65.7255 30.376 66.4295 30.376C67.9015 30.376 71.5495 31.208 72.7655 31.848C73.7255 32.296 74.3015 33.064 74.3015 33.896C74.3015 35.368 69.8855 52.52 65.8535 66.856C64.2535 72.488 64.1895 72.552 61.3735 72.552C56.8935 72.552 54.5255 71.656 54.5255 69.928C54.5255 69.032 55.6775 64.744 58.3015 55.72C58.7495 54.248 58.8135 53.928 59.2615 52.328L58.8135 53.096L58.0455 54.568C57.4695 55.656 56.5735 56.872 55.9975 57.384C55.4855 57.832 55.1655 57.896 53.5655 57.896H50.4935C50.2375 59.304 49.9815 60.136 49.2135 63.336C48.8295 64.616 48.5095 65.896 48.2535 67.24C47.5495 70.376 47.2935 71.016 46.7175 71.656C46.2055 72.296 45.3735 72.616 44.3495 72.616C42.6215 72.616 40.3815 72.168 38.9735 71.528C37.6295 70.952 37.2455 70.568 37.2455 69.8C37.2455 68.968 38.8455 62.184 40.1255 57.896C38.3975 57.576 37.8215 56.936 37.8215 55.592C37.8215 53.672 39.3575 48.68 40.3175 47.656C40.8295 47.08 41.2775 46.952 43.0695 46.952L43.1975 46.376L43.7735 44.52C44.9255 40.36 47.1015 33.448 47.5495 32.36C48.1255 31.016 49.1495 30.376 50.5575 30.376C51.7735 30.376 54.2055 30.952 55.6135 31.592C56.7655 32.104 57.3415 32.936 57.3415 34.024C57.3415 34.408 57.0215 35.752 56.3175 37.928C55.6775 40.168 54.9735 42.344 54.3335 44.392C53.8855 45.992 53.8855 45.992 53.5655 46.952Z" fill="white"/>
</svg>
