<svg width="34" height="34" viewBox="0 0 34 34" fill="none" xmlns="http://www.w3.org/2000/svg">
<g id="Group 6962">
<rect id="Rectangle 1458" width="34" height="34" rx="6" fill="white"/>
<path id="Vector" d="M17.5 20.5C19.5625 20.5 21.25 18.8125 21.25 16.75V11.75C21.25 9.6875 19.5625 8 17.5 8C15.4375 8 13.75 9.6875 13.75 11.75V16.75C13.75 18.8125 15.4375 20.5 17.5 20.5ZM23.75 14.25C23.0625 14.25 22.5 14.8125 22.5 15.5V16.75C22.5 19.5 20.25 21.75 17.5 21.75C14.75 21.75 12.5 19.5 12.5 16.75V15.5C12.5 14.8125 11.9375 14.25 11.25 14.25C10.5625 14.25 10 14.8125 10 15.5V16.75C10 20.4375 12.6875 23.5625 16.25 24.125V25.5C16.25 26.1875 16.8125 26.75 17.5 26.75C18.1875 26.75 18.75 26.1875 18.75 25.5V24.125C22.3125 23.5 25 20.4375 25 16.75V15.5C25 14.8125 24.4375 14.25 23.75 14.25Z" fill="#F04E23"/>
</g>
</svg>
