<svg width="18" height="16" viewBox="0 0 18 16" fill="none" xmlns="http://www.w3.org/2000/svg">
<path d="M16.5 7.0625H1.5V14.5625H16.5V7.0625Z" fill="#C0C0C0"/>
<path d="M16.5 15.5H1.5C1.25136 15.5 1.0129 15.4012 0.837088 15.2254C0.661272 15.0496 0.5625 14.8111 0.5625 14.5625V2.84375C0.5625 2.59511 0.661272 2.35665 0.837088 2.18084C1.0129 2.00502 1.25136 1.90625 1.5 1.90625H16.5C16.7486 1.90625 16.9871 2.00502 17.1629 2.18084C17.3387 2.35665 17.4375 2.59511 17.4375 2.84375V14.5625C17.4375 14.8111 17.3387 15.0496 17.1629 15.2254C16.9871 15.4012 16.7486 15.5 16.5 15.5ZM2.4375 13.625H15.5625V3.78125H2.4375V13.625Z" fill="#C0C0C0"/>
<path d="M5.71875 5.1875C5.47011 5.1875 5.23165 5.08873 5.05584 4.91291C4.88002 4.7371 4.78125 4.49864 4.78125 4.25V1.4375C4.78125 1.18886 4.88002 0.950403 5.05584 0.774588C5.23165 0.598772 5.47011 0.5 5.71875 0.5C5.96739 0.5 6.20585 0.598772 6.38166 0.774588C6.55748 0.950403 6.65625 1.18886 6.65625 1.4375V4.25C6.65625 4.49864 6.55748 4.7371 6.38166 4.91291C6.20585 5.08873 5.96739 5.1875 5.71875 5.1875Z" fill="#C0C0C0"/>
<path d="M12.2812 5.1875C12.0326 5.1875 11.7942 5.08873 11.6183 4.91291C11.4425 4.7371 11.3438 4.49864 11.3438 4.25V1.4375C11.3438 1.18886 11.4425 0.950403 11.6183 0.774588C11.7942 0.598772 12.0326 0.5 12.2812 0.5C12.5299 0.5 12.7683 0.598772 12.9442 0.774588C13.12 0.950403 13.2188 1.18886 13.2188 1.4375V4.25C13.2188 4.49864 13.12 4.7371 12.9442 4.91291C12.7683 5.08873 12.5299 5.1875 12.2812 5.1875Z" fill="#C0C0C0"/>
<path d="M16.5 8H1.5C1.25136 8 1.0129 7.90123 0.837088 7.72541C0.661272 7.5496 0.5625 7.31114 0.5625 7.0625C0.5625 6.81386 0.661272 6.5754 0.837088 6.39959C1.0129 6.22377 1.25136 6.125 1.5 6.125H16.5C16.7486 6.125 16.9871 6.22377 17.1629 6.39959C17.3387 6.5754 17.4375 6.81386 17.4375 7.0625C17.4375 7.31114 17.3387 7.5496 17.1629 7.72541C16.9871 7.90123 16.7486 8 16.5 8Z" fill="#C0C0C0"/>
</svg>
