<svg width="19" height="12" viewBox="0 0 19 12" fill="none" xmlns="http://www.w3.org/2000/svg">
<path fill-rule="evenodd" clip-rule="evenodd" d="M13.2316 0.695181C12.8338 0.381681 12.2581 0.453181 11.9456 0.851931L5.47847 9.10926L2.38105 5.26201C2.06205 4.86876 1.48639 4.8046 1.09222 5.12268C0.697136 5.44076 0.635719 6.01826 0.951969 6.41151L4.77355 11.158C4.94864 11.3743 5.2108 11.4999 5.48855 11.4999H5.49497C5.77363 11.4981 6.03764 11.3688 6.20997 11.1479L13.3884 1.98126C13.701 1.58343 13.6313 1.00685 13.2316 0.695181ZM17.815 0.695181C17.4162 0.381681 16.8415 0.453181 16.5289 0.851931L10.0618 9.10926L9.50813 8.42268L8.34855 9.90493L9.35688 11.158C9.53196 11.3743 9.79413 11.4999 10.0719 11.4999H10.0783C10.357 11.4981 10.621 11.3688 10.7933 11.1479L17.9717 1.98126C18.2843 1.58343 18.2146 1.00685 17.815 0.695181ZM7.14837 5.49081L5.98695 6.97214L5.53595 6.41205C5.21878 6.01789 5.2802 5.44039 5.67528 5.12231C6.07037 4.80514 6.64695 4.86839 6.96412 5.26256L7.14837 5.49081Z" fill="#B7BDCB"/>
<mask id="mask0_3712_1315" style="mask-type:alpha" maskUnits="userSpaceOnUse" x="0" y="0" width="19" height="12">
<path fill-rule="evenodd" clip-rule="evenodd" d="M13.2316 0.695181C12.8338 0.381681 12.2581 0.453181 11.9456 0.851931L5.47847 9.10926L2.38105 5.26201C2.06205 4.86876 1.48639 4.8046 1.09222 5.12268C0.697136 5.44076 0.635719 6.01826 0.951969 6.41151L4.77355 11.158C4.94864 11.3743 5.2108 11.4999 5.48855 11.4999H5.49497C5.77363 11.4981 6.03764 11.3688 6.20997 11.1479L13.3884 1.98126C13.701 1.58343 13.6313 1.00685 13.2316 0.695181ZM17.815 0.695181C17.4162 0.381681 16.8415 0.453181 16.5289 0.851931L10.0618 9.10926L9.50813 8.42268L8.34855 9.90493L9.35688 11.158C9.53196 11.3743 9.79413 11.4999 10.0719 11.4999H10.0783C10.357 11.4981 10.621 11.3688 10.7933 11.1479L17.9717 1.98126C18.2843 1.58343 18.2146 1.00685 17.815 0.695181ZM7.14837 5.49081L5.98695 6.97214L5.53595 6.41205C5.21878 6.01789 5.2802 5.44039 5.67528 5.12231C6.07037 4.80514 6.64695 4.86839 6.96412 5.26256L7.14837 5.49081Z" fill="white"/>
</mask>
<g mask="url(#mask0_3712_1315)">
</g>
</svg>
