<svg width="16" height="16" viewBox="0 0 16 16" fill="none" xmlns="http://www.w3.org/2000/svg">
<path id="Fill 1" fill-rule="evenodd" clip-rule="evenodd" d="M6 12C5.447 12 5 11.553 5 11V7C5 6.448 5.447 6 6 6C6.553 6 7 6.448 7 7V11C7 11.553 6.553 12 6 12ZM10 12C9.447 12 9 11.553 9 11V7C9 6.448 9.447 6 10 6C10.553 6 11 6.448 11 7V11C11 11.553 10.553 12 10 12ZM13 4H3V11C3 12.657 4.343 14 6 14H10C11.657 14 13 12.657 13 11V4ZM15 4V11C15 13.762 12.762 16 10 16H6C3.238 16 1 13.762 1 11V4C0.447 4 0 3.553 0 3C0 2.448 0.447 2 1 2H6C6 0.896 6.896 0 8 0C9.104 0 10 0.896 10 2H15C15.553 2 16 2.448 16 3C16 3.553 15.553 4 15 4Z" fill="#666666"/>
</svg>
