<svg width="15" height="14" viewBox="0 0 15 14" fill="none" xmlns="http://www.w3.org/2000/svg">
<path fill-rule="evenodd" clip-rule="evenodd" d="M6.83334 4.3335C6.83334 3.9655 7.13201 3.66683 7.50001 3.66683C7.86801 3.66683 8.16668 3.9655 8.16668 4.3335C8.16668 4.7015 7.86801 5.00016 7.50001 5.00016C7.13201 5.00016 6.83334 4.7015 6.83334 4.3335ZM6.83334 6.3335C6.83334 5.9655 7.13201 5.66683 7.50001 5.66683C7.86801 5.66683 8.16668 5.9655 8.16668 6.3335V9.66683C8.16668 10.0348 7.86801 10.3335 7.50001 10.3335C7.13201 10.3335 6.83334 10.0348 6.83334 9.66683V6.3335ZM7.50001 12.3335C4.55934 12.3335 2.16668 9.94083 2.16668 7.00016C2.16668 4.0595 4.55934 1.66683 7.50001 1.66683C10.4407 1.66683 12.8333 4.0595 12.8333 7.00016C12.8333 9.94083 10.4407 12.3335 7.50001 12.3335ZM7.50001 0.333496C3.81801 0.333496 0.833344 3.31816 0.833344 7.00016C0.833344 10.6822 3.81801 13.6668 7.50001 13.6668C11.1813 13.6668 14.1667 10.6822 14.1667 7.00016C14.1667 3.31816 11.1813 0.333496 7.50001 0.333496Z" fill="url(#paint0_linear_122_937)"/>
<defs>
<linearGradient id="paint0_linear_122_937" x1="16.6542" y1="7.00014" x2="-1.08208" y2="7.00014" gradientUnits="userSpaceOnUse">
<stop stop-color="#EA3100"/>
<stop offset="0.857292" stop-color="#FF7753"/>
</linearGradient>
</defs>
</svg>
