<svg width="15" height="10" viewBox="0 0 15 10" fill="none" xmlns="http://www.w3.org/2000/svg">
<path d="M7.00898 0.231201C4.33527 0.231201 1.91061 1.9037 0.121459 4.62028C-0.0245358 4.84284 -0.0245358 5.15377 0.121459 5.37634C1.91061 8.09619 4.33527 9.76869 7.00898 9.76869C9.68269 9.76869 12.1073 8.09619 13.8965 5.37961C14.0425 5.15705 14.0425 4.84611 13.8965 4.62355C12.1073 1.9037 9.68269 0.231201 7.00898 0.231201ZM7.20077 8.35803C5.42594 8.48567 3.96026 6.81318 4.07191 4.78065C4.16351 3.10488 5.35151 1.74659 6.81718 1.64186C8.59202 1.51421 10.0577 3.18671 9.94605 5.21923C9.85158 6.89173 8.66359 8.25002 7.20077 8.35803ZM7.11203 6.80663C6.15591 6.87537 5.36582 5.97529 5.4288 4.88212C5.47746 3.97877 6.1187 3.2489 6.90879 3.18998C7.86491 3.12125 8.655 4.02132 8.59202 5.1145C8.54049 6.02112 7.89926 6.75099 7.11203 6.80663Z" fill="#888888"/>
</svg>
