<svg width="20" height="27" viewBox="0 0 20 27" fill="none" xmlns="http://www.w3.org/2000/svg">
<path d="M10.0016 27C11.4518 27 12.6383 25.7538 12.6383 24.2308H7.36493C7.36493 24.9652 7.64272 25.6696 8.1372 26.1889C8.63168 26.7082 9.30233 27 10.0016 27ZM17.9117 18.6923V11.7692C17.9117 7.51846 15.7496 3.96 11.9791 3.01846V2.07692C11.9791 0.927692 11.0959 0 10.0016 0C8.9074 0 8.0241 0.927692 8.0241 2.07692V3.01846C4.24044 3.96 2.09153 7.50462 2.09153 11.7692V18.6923L0.39086 20.4785C-0.439699 21.3508 0.140374 22.8462 1.3137 22.8462H18.6764C19.8497 22.8462 20.443 21.3508 19.6124 20.4785L17.9117 18.6923Z" fill="white"/>
</svg>
