<svg width="18" height="18" viewBox="0 0 18 18" fill="none" xmlns="http://www.w3.org/2000/svg">
<path d="M7.68881 0.452479L4.17939 6.1883C3.7926 6.81094 4.24543 7.62226 4.98127 7.62226H11.9907C12.7265 7.62226 13.1794 6.81094 12.7926 6.1883L9.29258 0.452479C9.20918 0.314401 9.09155 0.200196 8.95106 0.120924C8.81058 0.0416525 8.652 0 8.49069 0C8.32939 0 8.17081 0.0416525 8.03033 0.120924C7.88984 0.200196 7.7722 0.314401 7.68881 0.452479Z" fill="white"/>
<path d="M13.6792 18.0003C16.0238 18.0003 17.9245 16.0996 17.9245 13.755C17.9245 11.4104 16.0238 9.50977 13.6792 9.50977C11.3346 9.50977 9.43396 11.4104 9.43396 13.755C9.43396 16.0996 11.3346 18.0003 13.6792 18.0003Z" fill="white"/>
<path d="M0.943392 17.5296H6.60375C7.12261 17.5296 7.54714 17.105 7.54714 16.5862V10.9258C7.54714 10.4069 7.12261 9.98242 6.60375 9.98242H0.943392C0.424527 9.98242 0 10.4069 0 10.9258V16.5862C0 17.105 0.424527 17.5296 0.943392 17.5296Z" fill="white"/>
</svg>
