<svg width="44" height="44" viewBox="0 0 44 44" fill="none" xmlns="http://www.w3.org/2000/svg">
<circle cx="22" cy="22" r="22" fill="#FFE5DE"/>
<path d="M30.3083 27.2751C30.3083 27.5751 30.2416 27.8834 30.1 28.1834C29.9583 28.4834 29.775 28.7667 29.5333 29.0334C29.125 29.4834 28.675 29.8084 28.1666 30.0167C27.6666 30.2251 27.125 30.3334 26.5416 30.3334C25.6916 30.3334 24.7833 30.1334 23.825 29.7251C22.8666 29.3167 21.9083 28.7667 20.9583 28.0751C20 27.3751 19.0916 26.6001 18.225 25.7417C17.3666 24.8751 16.5916 23.9667 15.9 23.0167C15.2166 22.0667 14.6666 21.1167 14.2666 20.1751C13.8666 19.2251 13.6666 18.3167 13.6666 17.4501C13.6666 16.8834 13.7666 16.3417 13.9666 15.8417C14.1666 15.3334 14.4833 14.8667 14.925 14.4501C15.4583 13.9251 16.0416 13.6667 16.6583 13.6667C16.8916 13.6667 17.125 13.7167 17.3333 13.8167C17.55 13.9167 17.7416 14.0667 17.8916 14.2834L19.825 17.0084C19.975 17.2167 20.0833 17.4084 20.1583 17.5917C20.2333 17.7667 20.275 17.9417 20.275 18.1001C20.275 18.3001 20.2166 18.5001 20.1 18.6917C19.9916 18.8834 19.8333 19.0834 19.6333 19.2834L19 19.9417C18.9083 20.0334 18.8666 20.1417 18.8666 20.2751C18.8666 20.3417 18.875 20.4001 18.8916 20.4667C18.9166 20.5334 18.9416 20.5834 18.9583 20.6334C19.1083 20.9084 19.3666 21.2667 19.7333 21.7001C20.1083 22.1334 20.5083 22.5751 20.9416 23.0167C21.3916 23.4584 21.825 23.8667 22.2666 24.2417C22.7 24.6084 23.0583 24.8584 23.3416 25.0084C23.3833 25.0251 23.4333 25.0501 23.4916 25.0751C23.5583 25.1001 23.625 25.1084 23.7 25.1084C23.8416 25.1084 23.95 25.0584 24.0416 24.9667L24.675 24.3417C24.8833 24.1334 25.0833 23.9751 25.275 23.8751C25.4666 23.7584 25.6583 23.7001 25.8666 23.7001C26.025 23.7001 26.1916 23.7334 26.375 23.8084C26.5583 23.8834 26.75 23.9917 26.9583 24.1334L29.7166 26.0917C29.9333 26.2417 30.0833 26.4167 30.175 26.6251C30.2583 26.8334 30.3083 27.0417 30.3083 27.2751Z" stroke="#F04E23" stroke-width="1.5" stroke-miterlimit="10"/>
</svg>
