<svg width="21" height="21" viewBox="0 0 21 21" fill="none" xmlns="http://www.w3.org/2000/svg">
<circle cx="10.5" cy="10.5" r="10.5" fill="#F04E23"/>
<path d="M15.1692 8.57707C14.6004 6.07457 12.4175 4.94791 10.5 4.94791C10.5 4.94791 10.5 4.94791 10.4946 4.94791C8.58251 4.94791 6.39417 6.06916 5.82542 8.57166C5.19167 11.3667 6.90334 13.7337 8.45251 15.2233C9.02667 15.7758 9.76334 16.0521 10.5 16.0521C11.2367 16.0521 11.9733 15.7758 12.5421 15.2233C14.0913 13.7337 15.8029 11.3721 15.1692 8.57707ZM10.5 11.2908C9.55751 11.2908 8.79376 10.5271 8.79376 9.58457C8.79376 8.64207 9.55751 7.87832 10.5 7.87832C11.4425 7.87832 12.2063 8.64207 12.2063 9.58457C12.2063 10.5271 11.4425 11.2908 10.5 11.2908Z" fill="white"/>
</svg>
