<svg width="27" height="26" viewBox="0 0 27 26" fill="none" xmlns="http://www.w3.org/2000/svg">
<g id="ant-design:audio-filled">
<path id="Vector" d="M12.9367 15.6608C15.3974 15.6608 17.3917 13.8746 17.3917 11.6704V6.3498C17.3917 4.14556 15.3974 2.35938 12.9367 2.35938C10.4759 2.35938 8.48166 4.14556 8.48166 6.3498V11.6704C8.48166 13.8746 10.4759 15.6608 12.9367 15.6608ZM21.5846 11.6229C21.5846 11.5183 21.4902 11.4328 21.3749 11.4328H19.8026C19.6873 11.4328 19.5929 11.5183 19.5929 11.6229C19.5929 14.9553 16.6133 17.656 12.9367 17.656C9.25998 17.656 6.28037 14.9553 6.28037 11.6229C6.28037 11.5183 6.18603 11.4328 6.07072 11.4328H4.49837C4.38307 11.4328 4.28873 11.5183 4.28873 11.6229C4.28873 15.6299 7.60639 18.9363 11.8884 19.4042V21.8364H8.08071C7.72169 21.8364 7.43343 22.1761 7.43343 22.5965V23.4516C7.43343 23.5561 7.50681 23.6416 7.59591 23.6416H18.2774C18.3665 23.6416 18.4399 23.5561 18.4399 23.4516V22.5965C18.4399 22.1761 18.1516 21.8364 17.7926 21.8364H13.8801V19.4161C18.2119 18.9885 21.5846 15.6632 21.5846 11.6229Z" fill="url(#paint0_linear_138_1426)"/>
</g>
<defs>
<linearGradient id="paint0_linear_138_1426" x1="24.8114" y1="13.0005" x2="1.80406" y2="13.0005" gradientUnits="userSpaceOnUse">
<stop stop-color="#EA3100"/>
<stop offset="0.857292" stop-color="#FF7753"/>
</linearGradient>
</defs>
</svg>
