<svg width="25" height="23" viewBox="0 0 25 23" fill="none" xmlns="http://www.w3.org/2000/svg">
<g id="topcoat:attachment">
<path id="Vector" fill-rule="evenodd" clip-rule="evenodd" d="M8.48664 13.0249C8.2493 13.4239 8.39123 13.7528 8.88022 14.1949L9.33343 14.6047C9.82838 15.0522 10.1993 15.1767 10.6281 14.9605C10.7837 14.8851 10.9507 14.767 11.1296 14.6047L13.8256 12.1676C14.3301 11.7719 14.8501 11.9358 15.3391 12.3779C15.84 12.8254 16.1441 13.3587 15.6909 13.8445L11.649 17.5006C10.2118 18.8 8.03403 19.1073 6.25816 17.5006C4.65881 16.0551 4.82101 13.9253 6.25816 12.6259L14.3426 5.3137C15.7797 4.01376 17.9086 3.66384 19.734 5.3137C21.5528 6.95871 21.2851 8.7865 20.1812 9.7845C19.4835 10.4153 19.5605 11.154 19.9958 11.5853L20.443 11.9892C21.1234 12.5984 21.7436 12.4097 22.4115 11.7956C24.7014 9.31489 24.5589 5.61618 21.9822 3.28103C19.2504 0.81648 14.8256 0.81648 12.095 3.28103L4.00821 10.5933C1.28299 13.0627 1.28299 17.0638 4.00821 19.5332C6.7394 21.9978 11.1648 21.9978 13.8959 19.5332L17.939 15.8771C19.1609 14.2003 18.9886 12.0221 17.36 10.5501C15.7374 9.08304 13.4242 9.05069 11.5762 10.1344L8.88022 12.572C8.70192 12.7338 8.57013 12.8847 8.48664 13.0249Z" fill="url(#paint0_linear_138_1428)"/>
</g>
<defs>
<linearGradient id="paint0_linear_138_1428" x1="28.1445" y1="11.4071" x2="-1.20532" y2="11.4071" gradientUnits="userSpaceOnUse">
<stop stop-color="#EA3100"/>
<stop offset="0.857292" stop-color="#FF7753"/>
</linearGradient>
</defs>
</svg>
