<svg width="28" height="26" viewBox="0 0 28 26" fill="none" xmlns="http://www.w3.org/2000/svg">
<g id="ic:outline-monochrome-photos" clip-path="url(#clip0_138_1420)">
<path id="Vector" d="M20.712 5.41667H16.8955L14.7487 3.25H7.59273L5.44595 5.41667H1.62944C0.317517 5.41667 -0.755875 6.39167 -0.755875 7.58333V20.5833C-0.755875 21.775 0.317517 22.75 1.62944 22.75H20.712C22.0239 22.75 23.0973 21.775 23.0973 20.5833V7.58333C23.0973 6.39167 22.0239 5.41667 20.712 5.41667ZM20.712 20.5833H11.1707V19.5C7.83126 19.5 5.20741 17.1167 5.20741 14.0833C5.20741 11.05 7.83126 8.66667 11.1707 8.66667V7.58333H20.712V20.5833ZM17.134 14.0833C17.134 11.05 14.5101 8.66667 11.1707 8.66667V10.6167C13.3175 10.6167 14.9872 12.1333 14.9872 14.0833C14.9872 16.0333 13.3175 17.55 11.1707 17.55V19.5C14.5101 19.5 17.134 17.1167 17.134 14.0833ZM7.3542 14.0833C7.3542 16.0333 9.02392 17.55 11.1707 17.55V10.6167C9.02392 10.6167 7.3542 12.1333 7.3542 14.0833Z" fill="url(#paint0_linear_138_1420)"/>
</g>
<defs>
<linearGradient id="paint0_linear_138_1420" x1="27.5475" y1="13" x2="-4.18254" y2="13" gradientUnits="userSpaceOnUse">
<stop stop-color="#EA3100"/>
<stop offset="0.857292" stop-color="#FF7753"/>
</linearGradient>
<clipPath id="clip0_138_1420">
<rect width="27.883" height="26" fill="white"/>
</clipPath>
</defs>
</svg>
