<svg width="29" height="26" viewBox="0 0 29 26" fill="none" xmlns="http://www.w3.org/2000/svg">
<g id="bx:bxs-videos" clip-path="url(#clip0_138_1422)">
<path id="Vector" d="M3.354 8.66699H0.968689V21.667C0.968689 22.8619 2.0385 23.8337 3.354 23.8337H17.6659V21.667H3.354V8.66699Z" fill="url(#paint0_linear_138_1422)"/>
<path id="Vector_2" d="M22.4366 2.16699H8.1247C7.49207 2.16699 6.88536 2.39527 6.43802 2.80159C5.99069 3.20792 5.73938 3.75902 5.73938 4.33366V17.3337C5.73938 17.9083 5.99069 18.4594 6.43802 18.8657C6.88536 19.2721 7.49207 19.5003 8.1247 19.5003H22.4366C23.0692 19.5003 23.6759 19.2721 24.1233 18.8657C24.5706 18.4594 24.8219 17.9083 24.8219 17.3337V4.33366C24.8219 3.75902 24.5706 3.20792 24.1233 2.80159C23.6759 2.39527 23.0692 2.16699 22.4366 2.16699ZM11.7027 15.167V6.50033L20.0513 10.8337L11.7027 15.167Z" fill="url(#paint1_linear_138_1422)"/>
</g>
<defs>
<linearGradient id="paint0_linear_138_1422" x1="20.781" y1="16.2503" x2="-1.42998" y2="16.2503" gradientUnits="userSpaceOnUse">
<stop stop-color="#EA3100"/>
<stop offset="0.857292" stop-color="#FF7753"/>
</linearGradient>
<linearGradient id="paint1_linear_138_1422" x1="28.3821" y1="10.8336" x2="2.99805" y2="10.8336" gradientUnits="userSpaceOnUse">
<stop stop-color="#EA3100"/>
<stop offset="0.857292" stop-color="#FF7753"/>
</linearGradient>
<clipPath id="clip0_138_1422">
<rect width="27.883" height="26" fill="white" transform="translate(0.5672)"/>
</clipPath>
</defs>
</svg>
