<svg width="21" height="20" viewBox="0 0 21 20" fill="none" xmlns="http://www.w3.org/2000/svg">
<g id="Group 75897">
<rect id="Rectangle 1766" x="1" y="1" width="18" height="15" rx="1" fill="url(#paint0_linear_138_1506)"/>
<path id="Vector" d="M5.56462 5H15.5646V7H5.56462V5ZM5.56462 9H12.5646V11H5.56462V9Z" fill="white"/>
<path id="Vector_2" d="M18.5646 0H2.56464C1.46164 0 0.564636 0.897 0.564636 2V20L5.89764 16H18.5646C19.6676 16 20.5646 15.103 20.5646 14V2C20.5646 0.897 19.6676 0 18.5646 0ZM18.5646 14H5.23164L2.56464 16V2H18.5646V14Z" fill="url(#paint1_linear_138_1506)"/>
</g>
<defs>
<linearGradient id="paint0_linear_138_1506" x1="22.3582" y1="8.49998" x2="-1.58582" y2="8.49998" gradientUnits="userSpaceOnUse">
<stop stop-color="#EA3100"/>
<stop offset="0.857292" stop-color="#FF7753"/>
</linearGradient>
<linearGradient id="paint1_linear_138_1506" x1="24.296" y1="9.99997" x2="-2.3085" y2="9.99997" gradientUnits="userSpaceOnUse">
<stop stop-color="#EA3100"/>
<stop offset="0.857292" stop-color="#FF7753"/>
</linearGradient>
</defs>
</svg>
