<svg width="30" height="30" viewBox="0 0 30 30" fill="none" xmlns="http://www.w3.org/2000/svg">
<rect width="30" height="30" rx="15" fill="#20E096"/>
<path fill-rule="evenodd" clip-rule="evenodd" d="M17.8121 5.43806C18.0659 5.69191 18.0659 6.10346 17.8121 6.3573L17.6954 6.47401H21.5009C22.5047 6.47401 23.3162 7.28552 23.3162 8.28931V9.57891C23.3162 9.93789 23.0252 10.2289 22.6662 10.2289C22.3072 10.2289 22.0162 9.93789 22.0162 9.57891V8.28931C22.0162 8.00349 21.7867 7.77401 21.5009 7.77401H17.6931L17.8121 7.89296C18.0659 8.14681 18.0659 8.55836 17.8121 8.8122C17.5582 9.06604 17.1467 9.06604 16.8928 8.8122L15.6654 7.58474C15.5384 7.45772 15.4749 7.29122 15.475 7.12474L15.475 7.12401C15.475 6.93298 15.5574 6.76119 15.6886 6.64227L16.8928 5.43806C17.1467 5.18422 17.5582 5.18422 17.8121 5.43806ZM16.7751 9.98132C16.7751 9.62234 16.4841 9.33132 16.1251 9.33132C15.7661 9.33132 15.4751 9.62234 15.4751 9.98132V11.2709C15.4751 12.2747 16.2866 13.0862 17.2904 13.0862H21.0974L20.9794 13.2042C20.7256 13.458 20.7256 13.8696 20.9794 14.1234C21.2333 14.3772 21.6448 14.3772 21.8987 14.1234L23.1261 12.896C23.248 12.7741 23.3165 12.6087 23.3165 12.4363C23.3165 12.3777 23.3086 12.3199 23.2933 12.2643C23.2796 12.2139 23.2599 12.166 23.2351 12.1214C23.206 12.0688 23.1694 12.02 23.1261 11.9767L21.8987 10.7493C21.6448 10.4954 21.2333 10.4954 20.9794 10.7493C20.7256 11.0031 20.7256 11.4147 20.9794 11.6685L21.0972 11.7862H17.2904C17.0046 11.7862 16.7751 11.5567 16.7751 11.2709V9.98132ZM12.787 21.5043H16.1961C19.2813 21.5043 20.5995 20.1862 20.5995 17.1009V16.5328C20.5995 16.5233 20.5992 16.5139 20.5985 16.5046C20.6069 16.375 20.5564 16.2437 20.4518 16.1526L19.5257 15.3572C18.9177 14.8401 17.9689 14.8401 17.3666 15.3572L15.0029 17.3856C14.7245 17.6299 14.2416 17.6299 13.9575 17.3856L13.77 17.2208C13.2132 16.7492 12.3666 16.7037 11.7529 17.1128L9.40329 18.6904C9.2883 18.2488 9.23585 17.7224 9.23585 17.1009V13.6918C9.23585 11.0725 10.1677 10.1407 12.787 10.1407C13.0199 10.1407 13.2131 9.94753 13.2131 9.71458C13.2131 9.48162 13.0199 9.28844 12.787 9.28844C9.70176 9.28844 8.38358 10.6066 8.38358 13.6918V17.1009C8.38358 20.1862 9.70176 21.5043 12.787 21.5043ZM19.7472 17.1009V16.6734L18.9689 16.0049C18.6848 15.7606 18.2018 15.7606 17.9234 16.0049L15.5598 18.0333C14.9575 18.5503 14.0086 18.5503 13.4007 18.0333L13.2132 17.8685C12.9518 17.6469 12.52 17.6242 12.2302 17.8231L9.74105 19.4977C10.2631 20.3207 11.225 20.6521 12.787 20.6521H16.1961C18.8154 20.6521 19.7472 19.7203 19.7472 17.1009ZM11.2244 13.1241C11.2244 13.9877 11.9232 14.6866 12.7869 14.6866C13.6505 14.6866 14.3494 13.9877 14.3494 13.1241C14.3494 12.2605 13.6505 11.5616 12.7869 11.5616C11.9232 11.5616 11.2244 12.2605 11.2244 13.1241ZM12.0766 13.1241C12.0766 12.7321 12.3948 12.4139 12.7869 12.4139C13.1789 12.4139 13.4971 12.7321 13.4971 13.1241C13.4971 13.5162 13.1789 13.8343 12.7869 13.8343C12.3948 13.8343 12.0766 13.5162 12.0766 13.1241Z" fill="white"/>
<path d="M17.8121 6.3573L17.9535 6.49872L17.8121 6.3573ZM17.8121 5.43806L17.6707 5.57948L17.6707 5.57948L17.8121 5.43806ZM17.6954 6.47401L17.5539 6.33258C17.4967 6.38978 17.4796 6.47581 17.5106 6.55054C17.5415 6.62528 17.6145 6.67401 17.6954 6.67401V6.47401ZM17.6931 7.77401V7.57401C17.6122 7.57401 17.5393 7.62273 17.5083 7.69747C17.4774 7.7722 17.4945 7.85823 17.5517 7.91543L17.6931 7.77401ZM17.8121 7.89296L17.9535 7.75154V7.75154L17.8121 7.89296ZM17.8121 8.8122L17.9535 8.95362V8.95362L17.8121 8.8122ZM16.8928 8.8122L16.7514 8.95362L16.8928 8.8122ZM15.6654 7.58474L15.8068 7.44332V7.44331L15.6654 7.58474ZM15.475 7.12474L15.675 7.12486V7.12461L15.475 7.12474ZM15.475 7.12401H15.275V7.12414L15.475 7.12401ZM15.6886 6.64227L15.8231 6.79063L15.83 6.78369L15.6886 6.64227ZM16.8928 5.43806L17.0343 5.57948L16.8928 5.43806ZM21.0974 13.0862L21.2388 13.2276C21.296 13.1704 21.3131 13.0844 21.2822 13.0097C21.2512 12.9349 21.1783 12.8862 21.0974 12.8862V13.0862ZM20.9794 13.2042L20.838 13.0627L20.838 13.0627L20.9794 13.2042ZM20.9794 14.1234L21.1209 13.982L20.9794 14.1234ZM21.8987 14.1234L21.7573 13.982L21.8987 14.1234ZM23.1261 12.896L22.9847 12.7545H22.9847L23.1261 12.896ZM23.3165 12.4363L23.1165 12.4363V12.4363L23.3165 12.4363ZM23.2933 12.2643L23.1004 12.3171L23.1005 12.3172L23.2933 12.2643ZM23.2351 12.1214L23.0602 12.2183L23.0602 12.2184L23.2351 12.1214ZM23.1261 11.9767L22.9847 12.1181L22.9847 12.1181L23.1261 11.9767ZM21.8987 10.7493L21.7573 10.8907L21.8987 10.7493ZM20.9794 10.7493L20.838 10.6078H20.838L20.9794 10.7493ZM20.9794 11.6685L21.1209 11.5271L21.1209 11.5271L20.9794 11.6685ZM21.0972 11.7862V11.9862C21.1781 11.9862 21.251 11.9375 21.2819 11.8628C21.3129 11.788 21.2958 11.702 21.2386 11.6448L21.0972 11.7862ZM20.5985 16.5046L20.399 16.4917C20.3984 16.5004 20.3984 16.5092 20.399 16.518L20.5985 16.5046ZM20.4518 16.1526L20.5832 16.0018L20.5821 16.0009L20.4518 16.1526ZM19.5257 15.3572L19.656 15.2054L19.6552 15.2048L19.5257 15.3572ZM17.3666 15.3572L17.4968 15.5089L17.4969 15.5089L17.3666 15.3572ZM15.0029 17.3856L14.8727 17.2338L14.871 17.2352L15.0029 17.3856ZM13.9575 17.3856L13.8255 17.5358L13.8271 17.5372L13.9575 17.3856ZM13.77 17.2208L13.902 17.0705L13.8993 17.0682L13.77 17.2208ZM11.7529 17.1128L11.642 16.9464L11.6415 16.9468L11.7529 17.1128ZM9.40329 18.6904L9.20975 18.7408C9.22608 18.8035 9.27179 18.8544 9.33239 18.8774C9.39299 18.9004 9.46097 18.8926 9.51478 18.8564L9.40329 18.6904ZM19.7472 16.6734H19.9472C19.9472 16.6151 19.9218 16.5597 19.8775 16.5217L19.7472 16.6734ZM18.9689 16.0049L18.8385 16.1565L18.8385 16.1566L18.9689 16.0049ZM17.9234 16.0049L18.0537 16.1567L18.0553 16.1552L17.9234 16.0049ZM15.5598 18.0333L15.4295 17.8815L15.4295 17.8815L15.5598 18.0333ZM13.4007 18.0333L13.2686 18.1835L13.2711 18.1856L13.4007 18.0333ZM13.2132 17.8685L13.3452 17.7183L13.3425 17.716L13.2132 17.8685ZM12.2302 17.8231L12.3419 17.989L12.3434 17.988L12.2302 17.8231ZM9.74105 19.4977L9.62941 19.3317C9.5395 19.3922 9.51412 19.5133 9.57216 19.6048L9.74105 19.4977ZM17.9535 6.49872C18.2854 6.16678 18.2854 5.62859 17.9535 5.29664L17.6707 5.57948C17.8464 5.75522 17.8464 6.04014 17.6707 6.21588L17.9535 6.49872ZM17.8368 6.61543L17.9535 6.49872L17.6707 6.21588L17.5539 6.33258L17.8368 6.61543ZM21.5009 6.27401H17.6954V6.67401H21.5009V6.27401ZM23.5162 8.28931C23.5162 7.17507 22.6152 6.27401 21.5009 6.27401V6.67401C22.3943 6.67401 23.1162 7.39598 23.1162 8.28931H23.5162ZM23.5162 9.57891V8.28931H23.1162V9.57891H23.5162ZM22.6662 10.4289C23.1357 10.4289 23.5162 10.0483 23.5162 9.57891H23.1162C23.1162 9.82744 22.9148 10.0289 22.6662 10.0289V10.4289ZM21.8162 9.57891C21.8162 10.0483 22.1968 10.4289 22.6662 10.4289V10.0289C22.4177 10.0289 22.2162 9.82744 22.2162 9.57891H21.8162ZM21.8162 8.28931V9.57891H22.2162V8.28931H21.8162ZM21.5009 7.97401C21.6763 7.97401 21.8162 8.11395 21.8162 8.28931H22.2162C22.2162 7.89304 21.8972 7.57401 21.5009 7.57401V7.97401ZM17.6931 7.97401H21.5009V7.57401H17.6931V7.97401ZM17.9535 7.75154L17.8345 7.63259L17.5517 7.91543L17.6707 8.03438L17.9535 7.75154ZM17.9535 8.95362C18.2854 8.62168 18.2854 8.08349 17.9535 7.75154L17.6707 8.03438C17.8464 8.21012 17.8464 8.49505 17.6707 8.67078L17.9535 8.95362ZM16.7514 8.95362C17.0834 9.28557 17.6215 9.28557 17.9535 8.95362L17.6707 8.67078C17.4949 8.84652 17.21 8.84651 17.0343 8.67078L16.7514 8.95362ZM15.524 7.72616L16.7514 8.95362L17.0343 8.67078L15.8068 7.44332L15.524 7.72616ZM15.275 7.12463C15.2749 7.34201 15.3579 7.5601 15.524 7.72616L15.8068 7.44331C15.7188 7.35534 15.6749 7.24042 15.675 7.12486L15.275 7.12463ZM15.275 7.12414L15.275 7.12487L15.675 7.12461L15.675 7.12388L15.275 7.12414ZM15.5543 6.49408C15.383 6.64932 15.275 6.87419 15.275 7.12401H15.675C15.675 6.99177 15.7318 6.87306 15.8229 6.79045L15.5543 6.49408ZM16.7514 5.29664L15.5472 6.50084L15.83 6.78369L17.0343 5.57948L16.7514 5.29664ZM17.9535 5.29664C17.6216 4.9647 17.0834 4.96469 16.7514 5.29664L17.0343 5.57948C17.21 5.40375 17.4949 5.40375 17.6707 5.57948L17.9535 5.29664ZM16.1251 9.53132C16.3736 9.53132 16.5751 9.73279 16.5751 9.98132H16.9751C16.9751 9.51188 16.5945 9.13132 16.1251 9.13132V9.53132ZM15.6751 9.98132C15.6751 9.73279 15.8766 9.53132 16.1251 9.53132V9.13132C15.6556 9.13132 15.2751 9.51188 15.2751 9.98132H15.6751ZM15.6751 11.2709V9.98132H15.2751V11.2709H15.6751ZM17.2904 12.8862C16.3971 12.8862 15.6751 12.1642 15.6751 11.2709H15.2751C15.2751 12.3852 16.1761 13.2862 17.2904 13.2862V12.8862ZM21.0974 12.8862H17.2904V13.2862H21.0974V12.8862ZM21.1209 13.3456L21.2388 13.2276L20.956 12.9448L20.838 13.0627L21.1209 13.3456ZM21.1209 13.982C20.9451 13.8062 20.9451 13.5213 21.1209 13.3456L20.838 13.0627C20.5061 13.3947 20.5061 13.9329 20.838 14.2648L21.1209 13.982ZM21.7573 13.982C21.5815 14.1577 21.2966 14.1577 21.1209 13.982L20.838 14.2648C21.17 14.5968 21.7082 14.5968 22.0401 14.2648L21.7573 13.982ZM22.9847 12.7545L21.7573 13.982L22.0401 14.2648L23.2675 13.0374L22.9847 12.7545ZM23.1165 12.4363C23.1165 12.5557 23.0691 12.6702 22.9847 12.7545L23.2675 13.0374C23.427 12.878 23.5165 12.6618 23.5165 12.4363L23.1165 12.4363ZM23.1005 12.3172C23.111 12.3557 23.1165 12.3957 23.1165 12.4363L23.5165 12.4364C23.5165 12.3597 23.5061 12.284 23.4862 12.2113L23.1005 12.3172ZM23.0602 12.2184C23.0773 12.2493 23.0909 12.2824 23.1004 12.3171L23.4862 12.2115C23.4682 12.1455 23.4424 12.0828 23.41 12.0244L23.0602 12.2184ZM22.9847 12.1181C23.0147 12.1481 23.04 12.1819 23.0602 12.2183L23.4101 12.0245C23.372 11.9557 23.3242 11.8919 23.2676 11.8353L22.9847 12.1181ZM21.7573 10.8907L22.9847 12.1181L23.2676 11.8353L22.0401 10.6078L21.7573 10.8907ZM21.1209 10.8907C21.2966 10.7149 21.5815 10.7149 21.7573 10.8907L22.0401 10.6078C21.7082 10.2759 21.17 10.2759 20.838 10.6078L21.1209 10.8907ZM21.1209 11.5271C20.9451 11.3513 20.9451 11.0664 21.1209 10.8907L20.838 10.6078C20.5061 10.9398 20.5061 11.478 20.838 11.8099L21.1209 11.5271ZM21.2386 11.6448L21.1209 11.5271L20.838 11.8099L20.9557 11.9276L21.2386 11.6448ZM17.2904 11.9862H21.0972V11.5862H17.2904V11.9862ZM16.5751 11.2709C16.5751 11.6672 16.8941 11.9862 17.2904 11.9862V11.5862C17.115 11.5862 16.9751 11.4463 16.9751 11.2709H16.5751ZM16.5751 9.98132V11.2709H16.9751V9.98132H16.5751ZM16.1961 21.3043H12.787V21.7043H16.1961V21.3043ZM20.3995 17.1009C20.3995 18.6206 20.0741 19.6574 19.4133 20.3182C18.7526 20.9789 17.7157 21.3043 16.1961 21.3043V21.7043C17.7616 21.7043 18.9265 21.3707 19.6962 20.601C20.4658 19.8314 20.7995 18.6665 20.7995 17.1009H20.3995ZM20.3995 16.5328V17.1009H20.7995V16.5328H20.3995ZM20.399 16.518C20.3993 16.5229 20.3995 16.5278 20.3995 16.5328H20.7995C20.7995 16.5188 20.799 16.5049 20.7981 16.4912L20.399 16.518ZM20.3205 16.3034C20.3764 16.3522 20.4035 16.4221 20.399 16.4917L20.7981 16.5175C20.8104 16.3278 20.7364 16.1353 20.5832 16.0018L20.3205 16.3034ZM19.3954 15.5089L20.3215 16.3043L20.5821 16.0009L19.656 15.2054L19.3954 15.5089ZM17.4969 15.5089C18.0238 15.0565 18.8625 15.0557 19.3961 15.5095L19.6552 15.2048C18.9729 14.6245 17.9139 14.6237 17.2363 15.2054L17.4969 15.5089ZM15.1332 17.5373L17.4968 15.5089L17.2363 15.2054L14.8727 17.2338L15.1332 17.5373ZM13.8271 17.5372C14.0109 17.6953 14.2513 17.7688 14.4824 17.7688C14.7133 17.7688 14.9532 17.6953 15.1349 17.5359L14.871 17.2352C14.7743 17.3201 14.6335 17.3688 14.4824 17.3688C14.3313 17.3688 14.1881 17.3201 14.0879 17.2339L13.8271 17.5372ZM13.638 17.371L13.8255 17.5358L14.0895 17.2353L13.902 17.0706L13.638 17.371ZM11.8639 17.2792C12.4044 16.9189 13.1529 16.9603 13.6407 17.3734L13.8993 17.0682C13.2734 16.5381 12.3288 16.4886 11.642 16.9464L11.8639 17.2792ZM9.51478 18.8564L11.8644 17.2789L11.6415 16.9468L9.29181 18.5243L9.51478 18.8564ZM9.03585 17.1009C9.03585 17.7324 9.089 18.2772 9.20975 18.7408L9.59684 18.64C9.48759 18.2205 9.43585 17.7124 9.43585 17.1009H9.03585ZM9.03585 13.6918V17.1009H9.43585V13.6918H9.03585ZM12.787 9.94071C11.4632 9.94071 10.5063 10.1741 9.88775 10.7926C9.26923 11.4111 9.03585 12.3681 9.03585 13.6918H9.43585C9.43585 12.3963 9.66837 11.5777 10.1706 11.0755C10.6728 10.5732 11.4914 10.3407 12.787 10.3407V9.94071ZM13.0131 9.71458C13.0131 9.83707 12.9095 9.94071 12.787 9.94071V10.3407C13.1304 10.3407 13.4131 10.058 13.4131 9.71458H13.0131ZM12.787 9.48844C12.9095 9.48844 13.0131 9.59208 13.0131 9.71458H13.4131C13.4131 9.37116 13.1304 9.08844 12.787 9.08844V9.48844ZM8.58358 13.6918C8.58358 12.1722 8.90899 11.1354 9.56974 10.4746C10.2305 9.81386 11.2673 9.48844 12.787 9.48844V9.08844C11.2214 9.08844 10.0565 9.42211 9.2869 10.1918C8.51725 10.9614 8.18358 12.1263 8.18358 13.6918H8.58358ZM8.58358 17.1009V13.6918H8.18358V17.1009H8.58358ZM12.787 21.3043C11.2673 21.3043 10.2305 20.9789 9.56974 20.3182C8.90899 19.6574 8.58358 18.6206 8.58358 17.1009H8.18358C8.18358 18.6665 8.51725 19.8314 9.2869 20.601C10.0565 21.3707 11.2214 21.7043 12.787 21.7043V21.3043ZM19.5472 16.6734V17.1009H19.9472V16.6734H19.5472ZM18.8385 16.1566L19.6169 16.8251L19.8775 16.5217L19.0992 15.8532L18.8385 16.1566ZM18.0553 16.1552C18.152 16.0703 18.2929 16.0216 18.444 16.0216C18.595 16.0216 18.7382 16.0703 18.8385 16.1565L19.0993 15.8532C18.9154 15.6951 18.6751 15.6216 18.444 15.6216C18.213 15.6216 17.9732 15.6951 17.7915 15.8546L18.0553 16.1552ZM15.69 18.1851L18.0537 16.1567L17.7932 15.8531L15.4295 17.8815L15.69 18.1851ZM13.2711 18.1856C13.9534 18.7659 15.0125 18.7667 15.69 18.185L15.4295 17.8815C14.9025 18.334 14.0639 18.3348 13.5302 17.8809L13.2711 18.1856ZM13.0812 18.0188L13.2687 18.1835L13.5327 17.8831L13.3452 17.7183L13.0812 18.0188ZM12.3434 17.988C12.5595 17.8396 12.892 17.8584 13.0838 18.0211L13.3425 17.716C13.0117 17.4355 12.4804 17.4088 12.1171 17.6582L12.3434 17.988ZM9.85268 19.6636L12.3419 17.989L12.1186 17.6571L9.62941 19.3317L9.85268 19.6636ZM12.787 20.4521C11.2426 20.4521 10.3745 20.123 9.90993 19.3906L9.57216 19.6048C10.1516 20.5184 11.2073 20.8521 12.787 20.8521V20.4521ZM16.1961 20.4521H12.787V20.8521H16.1961V20.4521ZM19.5472 17.1009C19.5472 18.3965 19.3147 19.2151 18.8125 19.7173C18.3102 20.2195 17.4916 20.4521 16.1961 20.4521V20.8521C17.5198 20.8521 18.4768 20.6187 19.0953 20.0002C19.7138 19.3817 19.9472 18.4247 19.9472 17.1009H19.5472ZM12.7869 14.4866C12.0337 14.4866 11.4244 13.8773 11.4244 13.1241H11.0244C11.0244 14.0982 11.8128 14.8866 12.7869 14.8866V14.4866ZM14.1494 13.1241C14.1494 13.8773 13.5401 14.4866 12.7869 14.4866V14.8866C13.761 14.8866 14.5494 14.0982 14.5494 13.1241H14.1494ZM12.7869 11.7616C13.5401 11.7616 14.1494 12.3709 14.1494 13.1241H14.5494C14.5494 12.15 13.761 11.3616 12.7869 11.3616V11.7616ZM11.4244 13.1241C11.4244 12.3709 12.0337 11.7616 12.7869 11.7616V11.3616C11.8128 11.3616 11.0244 12.15 11.0244 13.1241H11.4244ZM12.7869 12.2139C12.2844 12.2139 11.8766 12.6216 11.8766 13.1241H12.2766C12.2766 12.8425 12.5053 12.6139 12.7869 12.6139V12.2139ZM13.6971 13.1241C13.6971 12.6216 13.2894 12.2139 12.7869 12.2139V12.6139C13.0685 12.6139 13.2971 12.8425 13.2971 13.1241H13.6971ZM12.7869 14.0343C13.2894 14.0343 13.6971 13.6266 13.6971 13.1241H13.2971C13.2971 13.4057 13.0685 13.6343 12.7869 13.6343V14.0343ZM11.8766 13.1241C11.8766 13.6266 12.2844 14.0343 12.7869 14.0343V13.6343C12.5053 13.6343 12.2766 13.4057 12.2766 13.1241H11.8766Z" fill="white"/>
</svg>
