<svg width="15" height="15" viewBox="0 0 15 15" fill="none" xmlns="http://www.w3.org/2000/svg">
<path id="Mask" fill-rule="evenodd" clip-rule="evenodd" d="M9.72234 15.0005C9.70484 15.0005 9.68817 14.9997 9.6715 14.9989C9.29484 14.9764 8.98067 14.703 8.90567 14.333L7.624 8.0272C7.55733 7.69887 7.3015 7.44304 6.97317 7.37637L0.667334 6.09387C0.297334 6.0197 0.0240003 5.70554 0.00150025 5.32887C-0.0209998 4.95137 0.2115 4.60637 0.569834 4.48804L13.9032 0.0438694C14.2023 -0.0577973 14.5323 0.0205361 14.7557 0.244703C14.979 0.468036 15.0565 0.798036 14.9573 1.0972L10.5123 14.4305C10.399 14.773 10.079 15.0005 9.72234 15.0005Z" fill="#F04E23"/>
</svg>
