<svg width="20" height="20" viewBox="0 0 20 20" fill="none" xmlns="http://www.w3.org/2000/svg">
<path d="M3.68057 12.7941C4.59867 12.7916 5.48205 12.4816 6.15465 11.9257L12.7256 15.2654C12.5055 16.0307 12.6025 16.8408 12.999 17.5476C13.3955 18.2544 14.065 18.8105 14.8848 19.1142C15.7046 19.4178 16.6199 19.4487 17.4632 19.2011C18.3065 18.9535 19.0213 18.4441 19.4769 17.766C19.9324 17.088 20.0981 16.2867 19.9437 15.5088C19.7893 14.731 19.3251 14.0286 18.6361 13.5303C17.947 13.032 17.0793 12.771 16.1917 12.7953C15.304 12.8196 14.4559 13.1274 13.8026 13.6624L7.23162 10.3227C7.3009 10.0892 7.33869 9.84742 7.34499 9.60561L13.8005 6.32379C14.4221 6.82682 15.2193 7.12441 16.0583 7.16662C16.8973 7.20883 17.7271 6.99311 18.4085 6.55563C19.0899 6.11816 19.5815 5.48555 19.8007 4.76395C20.0199 4.04234 19.9534 3.27563 19.6124 2.59245C19.2714 1.90927 18.6766 1.35119 17.9278 1.01182C17.1791 0.67246 16.3219 0.572465 15.5001 0.728613C14.6782 0.884762 13.9418 1.28755 13.4143 1.86942C12.8867 2.45128 12.6002 3.17681 12.6028 3.92429C12.607 4.19318 12.6479 4.46114 12.7256 4.7207L6.75927 7.75229C6.41327 7.27618 5.93397 6.88833 5.36846 6.62683C4.80296 6.36534 4.17069 6.2392 3.5338 6.26082C2.8969 6.28243 2.27728 6.45105 1.73582 6.75011C1.19435 7.04917 0.749676 7.46838 0.44547 7.96656C0.141265 8.46473 -0.0119999 9.02473 0.000733402 9.59153C0.0134667 10.1583 0.19176 10.7124 0.518097 11.1994C0.844433 11.6864 1.30759 12.0895 1.86205 12.369C2.41651 12.6486 3.04321 12.7951 3.68057 12.7941Z" fill="url(#paint0_linear_121_168)"/>
<defs>
<linearGradient id="paint0_linear_121_168" x1="23.7313" y1="10.0117" x2="-2.87313" y2="10.0117" gradientUnits="userSpaceOnUse">
<stop stop-color="#EA3100"/>
<stop offset="0.857292" stop-color="#FF7753"/>
</linearGradient>
</defs>
</svg>
