<svg width="10" height="9" viewBox="0 0 10 9" fill="none" xmlns="http://www.w3.org/2000/svg">
<path fill-rule="evenodd" clip-rule="evenodd" d="M7.73248 5.13791C7.62015 5.23546 7.5689 5.376 7.59543 5.51374L8.01665 7.70147C8.0496 7.87482 8.0167 7.99907 7.85716 8.10262C7.76688 8.16109 7.65948 8.19092 7.55207 8.19092C7.46958 8.19092 7.38681 8.17335 7.31081 8.13775L5.05834 7.05616C4.91952 6.99114 4.75367 6.99114 4.61484 7.05616L2.45693 8.13776C2.28208 8.21981 2.07039 8.20594 1.91031 8.10263C1.75077 7.99908 1.62332 7.87506 1.6568 7.70148L2.17281 5.46832C2.19933 5.33058 2.14807 5.19004 2.03576 5.0925L0.157045 3.7759C0.0151388 3.65317 -0.0354531 3.46941 0.0252572 3.30208C0.0864755 3.13473 0.248629 3.01292 0.44423 2.9875L2.88792 2.60541C3.04309 2.5853 3.17722 2.49848 3.24664 2.37323L4.37169 0.25795C4.45886 0.100092 4.63916 0.000232697 4.83684 0.000232697C5.03452 0.000232697 5.2143 0.100081 5.30199 0.25795L6.38291 2.37318C6.45232 2.49847 6.58648 2.58533 6.74168 2.60543L9.22945 2.9875C9.42454 3.01269 9.5872 3.13473 9.64791 3.30208C9.70889 3.46941 9.65751 3.65316 9.5164 3.77589L7.73248 5.13791Z" fill="#FFBF00"/>
</svg>
