<svg width="151" height="24" viewBox="0 0 151 24" fill="none" xmlns="http://www.w3.org/2000/svg">
<g id="Group 75891">
<g id="Group 75879">
<path id="Vector" d="M25.4817 10.8764C25.9748 10.3959 26.1488 9.69059 25.9362 9.03499C25.723 8.37938 25.1677 7.91138 24.4855 7.81206L18.42 6.93074C18.1617 6.89312 17.9385 6.7311 17.8231 6.49684L15.1114 1.00121C14.8069 0.383731 14.189 0 13.5003 0C12.812 0 12.1941 0.383731 11.8896 1.00121L9.17738 6.49735C9.06201 6.7316 8.8383 6.89362 8.57997 6.93124L2.51451 7.81257C1.83282 7.91138 1.27704 8.37988 1.06385 9.03549C0.85117 9.69109 1.02523 10.3964 1.51831 10.8769L5.90689 15.1546C6.09399 15.3372 6.17977 15.6 6.13563 15.8569L5.1003 21.8973C5.00851 22.429 5.14796 22.9461 5.49206 23.3539C6.02678 23.9895 6.96027 24.1831 7.70667 23.7908L13.1311 20.9387C13.3578 20.8198 13.6432 20.8208 13.8694 20.9387L19.2943 23.7908C19.5582 23.9298 19.8396 24 20.13 24C20.6602 24 21.1628 23.7642 21.5084 23.3539C21.8531 22.9461 21.992 22.428 21.9002 21.8973L20.8644 15.8569C20.8202 15.5995 20.906 15.3372 21.0931 15.1546L25.4817 10.8764Z" fill="#FFCC80"/>
<path id="Vector_2" d="M56.4817 10.8764C56.9748 10.3959 57.1488 9.69059 56.9362 9.03499C56.723 8.37938 56.1677 7.91138 55.4855 7.81206L49.42 6.93074C49.1617 6.89312 48.9385 6.7311 48.8231 6.49684L46.1114 1.00121C45.8069 0.383731 45.189 0 44.5003 0C43.812 0 43.1941 0.383731 42.8896 1.00121L40.1774 6.49735C40.062 6.7316 39.8383 6.89362 39.58 6.93124L33.5145 7.81257C32.8328 7.91138 32.277 8.37988 32.0639 9.03549C31.8512 9.69109 32.0252 10.3964 32.5183 10.8769L36.9069 15.1546C37.094 15.3372 37.1798 15.6 37.1356 15.8569L36.1003 21.8973C36.0085 22.429 36.148 22.9461 36.4921 23.3539C37.0268 23.9895 37.9603 24.1831 38.7067 23.7908L44.1311 20.9387C44.3578 20.8198 44.6432 20.8208 44.8694 20.9387L50.2943 23.7908C50.5582 23.9298 50.8396 24 51.13 24C51.6602 24 52.1628 23.7642 52.5084 23.3539C52.8531 22.9461 52.992 22.428 52.9002 21.8973L51.8644 15.8569C51.8202 15.5995 51.906 15.3372 52.0931 15.1546L56.4817 10.8764Z" fill="#FFCC80"/>
<path id="Vector_3" d="M87.4817 10.8764C87.9748 10.3959 88.1488 9.69059 87.9362 9.03499C87.723 8.37938 87.1677 7.91138 86.4855 7.81206L80.42 6.93074C80.1617 6.89312 79.9385 6.7311 79.8231 6.49684L77.1114 1.00121C76.8069 0.383731 76.189 0 75.5003 0C74.812 0 74.1941 0.383731 73.8896 1.00121L71.1774 6.49735C71.062 6.7316 70.8383 6.89362 70.58 6.93124L64.5145 7.81257C63.8328 7.91138 63.277 8.37988 63.0639 9.03549C62.8512 9.69109 63.0252 10.3964 63.5183 10.8769L67.9069 15.1546C68.094 15.3372 68.1798 15.6 68.1356 15.8569L67.1003 21.8973C67.0085 22.429 67.148 22.9461 67.4921 23.3539C68.0268 23.9895 68.9603 24.1831 69.7067 23.7908L75.1311 20.9387C75.3578 20.8198 75.6432 20.8208 75.8694 20.9387L81.2943 23.7908C81.5582 23.9298 81.8396 24 82.13 24C82.6602 24 83.1628 23.7642 83.5084 23.3539C83.8531 22.9461 83.992 22.428 83.9002 21.8973L82.8644 15.8569C82.8202 15.5995 82.906 15.3372 83.0931 15.1546L87.4817 10.8764Z" fill="#FFCC80"/>
<path id="Vector_4" opacity="0.2" d="M118.482 10.8764C118.975 10.3959 119.149 9.69059 118.936 9.03499C118.723 8.37938 118.168 7.91138 117.486 7.81206L111.42 6.93074C111.162 6.89312 110.938 6.7311 110.823 6.49684L108.111 1.00121C107.807 0.383731 107.189 0 106.5 0C105.812 0 105.194 0.383731 104.89 1.00121L102.177 6.49735C102.062 6.7316 101.838 6.89362 101.58 6.93124L95.5145 7.81257C94.8328 7.91138 94.277 8.37988 94.0639 9.03549C93.8512 9.69109 94.0252 10.3964 94.5183 10.8769L98.9069 15.1546C99.094 15.3372 99.1798 15.6 99.1356 15.8569L98.1003 21.8973C98.0085 22.429 98.148 22.9461 98.4921 23.3539C99.0268 23.9895 99.9603 24.1831 100.707 23.7908L106.131 20.9387C106.358 20.8198 106.643 20.8208 106.869 20.9387L112.294 23.7908C112.558 23.9298 112.84 24 113.13 24C113.66 24 114.163 23.7642 114.508 23.3539C114.853 22.9461 114.992 22.428 114.9 21.8973L113.864 15.8569C113.82 15.5995 113.906 15.3372 114.093 15.1546L118.482 10.8764Z" fill="#666666"/>
<path id="Vector_5" opacity="0.2" d="M149.482 10.8764C149.975 10.3959 150.149 9.69059 149.936 9.03499C149.723 8.37938 149.168 7.91138 148.486 7.81206L142.42 6.93074C142.162 6.89312 141.938 6.7311 141.823 6.49684L139.111 1.00121C138.807 0.383731 138.189 0 137.5 0C136.812 0 136.194 0.383731 135.89 1.00121L133.177 6.49735C133.062 6.7316 132.838 6.89362 132.58 6.93124L126.515 7.81257C125.833 7.91138 125.277 8.37988 125.064 9.03549C124.851 9.69109 125.025 10.3964 125.518 10.8769L129.907 15.1546C130.094 15.3372 130.18 15.6 130.136 15.8569L129.1 21.8973C129.009 22.429 129.148 22.9461 129.492 23.3539C130.027 23.9895 130.96 24.1831 131.707 23.7908L137.131 20.9387C137.358 20.8198 137.643 20.8208 137.869 20.9387L143.294 23.7908C143.558 23.9298 143.84 24 144.13 24C144.66 24 145.163 23.7642 145.508 23.3539C145.853 22.9461 145.992 22.428 145.9 21.8973L144.864 15.8569C144.82 15.5995 144.906 15.3372 145.093 15.1546L149.482 10.8764Z" fill="#666666"/>
</g>
</g>
</svg>
