<svg width="15" height="9" viewBox="0 0 15 9" fill="none" xmlns="http://www.w3.org/2000/svg">
<path fill-rule="evenodd" clip-rule="evenodd" d="M11.5825 0.681137C11.8137 0.914483 11.8042 1.28372 11.5613 1.50584L4.54547 7.92251C4.42565 8.03209 4.2645 8.08996 4.09925 8.08273C3.93401 8.07551 3.77898 8.00381 3.67003 7.88423L0.971614 4.92269C0.750747 4.68029 0.776227 4.31176 1.02852 4.09955C1.28082 3.88735 1.6644 3.91183 1.88527 4.15423L4.16673 6.65816L10.7241 0.660824C10.967 0.438697 11.3513 0.447791 11.5825 0.681137Z" fill="#B6B6B6"/>
<path fill-rule="evenodd" clip-rule="evenodd" d="M14.6186 1.26414C14.8498 1.49749 14.8403 1.86673 14.5975 2.08885L7.5816 8.50552C7.46179 8.6151 7.30063 8.67297 7.13538 8.66574C6.97014 8.65851 6.81512 8.58682 6.70616 8.46724L4.00775 5.5057C3.78688 5.2633 3.81236 4.89476 4.06466 4.68256C4.31696 4.47035 4.70053 4.49483 4.9214 4.73724L7.20286 7.24117L13.7602 1.24383C14.0031 1.0217 14.3874 1.0308 14.6186 1.26414Z" fill="#B6B6B6"/>
</svg>
