<svg width="18" height="14" viewBox="0 0 18 14" fill="none" xmlns="http://www.w3.org/2000/svg">
<path d="M17.9843 1.50963V12.4904C17.9843 13.3172 17.3136 13.9879 16.4869 13.9879H1.51301C0.686328 13.9879 0.015625 13.3172 0.015625 12.4904V1.50963C0.015625 0.68291 0.686328 0.012207 1.51301 0.012207H16.4869C17.3136 0.012207 17.9843 0.682949 17.9843 1.50963Z" fill="#1988FB"/>
<path d="M15.4763 4.50439H14.5061C14.2066 4.50439 13.9788 4.59178 13.8509 4.90682L11.9885 9.35213H13.305C13.305 9.35213 13.5203 8.75322 13.567 8.62533H15.1768C15.2141 8.79689 15.3265 9.35213 15.3265 9.35213H16.487L15.4763 4.50439ZM13.9289 7.6333C14.0319 7.35572 14.4281 6.27635 14.4281 6.27635C14.4218 6.28568 14.531 5.99244 14.5934 5.8115L14.6807 6.22955C14.6807 6.22955 14.9178 7.39002 14.9709 7.63334H13.9289V7.6333Z" fill="white"/>
<path d="M5.41876 4.50439L4.19278 7.81115L4.0586 7.14041L3.62185 4.91303C3.55009 4.6042 3.3286 4.51686 3.05407 4.50439H1.03579L1.01392 4.60111C1.50681 4.72592 1.94669 4.90686 2.33036 5.13455L3.4472 9.346H4.77298L6.7445 4.50443H5.41876V4.50439Z" fill="white"/>
<path d="M7.24993 4.50439L6.46692 9.35217H7.71793L8.50403 4.50439H7.24993Z" fill="white"/>
<path d="M11.0308 6.44796C10.591 6.22648 10.3227 6.07671 10.3227 5.84902C10.3289 5.64312 10.5504 5.43097 11.0433 5.43097C11.4519 5.4216 11.7514 5.51835 11.976 5.61499L12.0884 5.66804L12.2599 4.61988C12.0134 4.52312 11.6204 4.41394 11.1369 4.41394C9.89843 4.41394 9.02808 5.07535 9.02183 6.01742C9.01246 6.71308 9.6457 7.09996 10.1199 7.33386C10.6034 7.57089 10.7687 7.72695 10.7687 7.93593C10.7625 8.26042 10.3757 8.41015 10.0169 8.41015C9.51781 8.41015 9.24949 8.3321 8.84093 8.15128L8.67554 8.0732L8.50085 9.16191C8.79402 9.29609 9.33687 9.41464 9.89839 9.42093C11.2148 9.42398 12.0727 8.77195 12.0821 7.76749C12.0884 7.21538 11.7515 6.79421 11.0308 6.44796Z" fill="white"/>
</svg>
